<svg xmlns="http://www.w3.org/2000/svg" width="21.117" height="21.117"><path d="M17.991 17.995h-3.127v-4.9c0-1.168-.024-2.672-1.63-2.672-1.63 0-1.879 1.271-1.879 2.586v4.986H8.228V7.919h3v1.373h.04a3.3 3.3 0 012.965-1.628c3.168 0 3.754 2.085 3.754 4.8v5.531zM4.7 6.54a1.816 1.816 0 111.812-1.817A1.814 1.814 0 014.7 6.54zm1.564 11.455H3.128V7.919h3.136zM19.555 0h-18A1.54 1.54 0 000 1.521V19.6a1.539 1.539 0 001.558 1.521h17.994a1.545 1.545 0 001.565-1.521V1.521A1.545 1.545 0 0019.552 0z" fill="#fff"/></svg>