<svg xmlns="http://www.w3.org/2000/svg" width="45.178" height="45.168"><path d="M22.594 11.003a11.581 11.581 0 1011.581 11.581 11.562 11.562 0 00-11.581-11.581zm0 19.11a7.529 7.529 0 117.529-7.529 7.543 7.543 0 01-7.529 7.529zM37.349 10.53a2.7 2.7 0 11-2.7-2.7 2.695 2.695 0 012.7 2.7zm7.67 2.741c-.171-3.618-1-6.823-3.649-9.464S35.525.34 31.905.162c-3.727-.215-14.9-.215-18.634 0-3.608.171-6.813 1-9.464 3.638S.34 9.643.158 13.262c-.212 3.729-.212 14.907 0 18.636.171 3.618 1 6.823 3.649 9.464s5.846 3.467 9.464 3.649c3.729.212 14.907.212 18.636 0 3.618-.171 6.823-1 9.464-3.649s3.467-5.846 3.649-9.464c.212-3.729.212-14.9 0-18.626zm-4.814 22.627a7.622 7.622 0 01-4.3 4.294c-2.973 1.179-10.028.907-13.314.907s-10.348.263-13.311-.907a7.622 7.622 0 01-4.294-4.294c-1.181-2.973-.907-10.028-.907-13.314s-.262-10.351.907-13.314A7.622 7.622 0 019.28 4.976c2.973-1.179 10.028-.907 13.314-.907s10.351-.262 13.311.907a7.622 7.622 0 014.3 4.294c1.179 2.973.907 10.028.907 13.314s.269 10.351-.907 13.314z" fill="#fff"/></svg>