<svg xmlns="http://www.w3.org/2000/svg" width="513.024" height="124.156" viewBox="0 0 513.024 124.156"><defs><style>.a{opacity:0.9;}.b{fill:#f9f9f9;font-size:73px;font-family:Verdana-Bold, Verdana;font-weight:700;}.c{fill:#e8e8e8;}</style></defs><g class="a" transform="translate(0 0.035)"><text class="b" transform="translate(0 72.965)"><tspan x="0" y="0">WheelHouse</tspan></text><path class="c" d="M24.014,125.772h-8.36v20.642H12.54V125.772H4.18V123H24.014Z" transform="translate(-1.661 -22.751)"/><path class="c" d="M70.629,134.421h-.157a9.758,9.758,0,0,0-1.286-.229,12.464,12.464,0,0,0-1.465-.071,6.131,6.131,0,0,0-2.644.6,12.441,12.441,0,0,0-2.451,1.565v12.468H59.69V131.2h2.958v2.586a14.761,14.761,0,0,1,3.1-2,6.8,6.8,0,0,1,2.737-.586,10.6,10.6,0,0,1,1.115.036l1.043.15Z" transform="translate(-17.51 -25.091)"/><path class="c" d="M119.336,148.583H116.4v-1.872c-.264.179-.614.429-1.065.715a7.858,7.858,0,0,1-1.293.765,8.739,8.739,0,0,1-1.7.6,9.059,9.059,0,0,1-2.251.25,5.616,5.616,0,0,1-4.023-1.579,5.28,5.28,0,0,1-1.65-4.008,5.552,5.552,0,0,1,.857-3.23,5.716,5.716,0,0,1,2.415-1.908,13.383,13.383,0,0,1,3.851-.957q2.251-.243,4.83-.379v-.45a3.53,3.53,0,0,0-.357-1.672A2.572,2.572,0,0,0,115,133.822a4.158,4.158,0,0,0-1.508-.486,11.867,11.867,0,0,0-4.43.179,19.742,19.742,0,0,0-2.958.893h-.157V131.4c.579-.157,1.429-.329,2.5-.514a18.426,18.426,0,0,1,3.222-.286,14.788,14.788,0,0,1,3.229.307,6.273,6.273,0,0,1,2.379,1.043,4.687,4.687,0,0,1,1.515,1.872,6.952,6.952,0,0,1,.514,2.858ZM116.4,144.26v-4.887c-.9.05-1.965.129-3.187.236a16.611,16.611,0,0,0-2.9.457,4.687,4.687,0,0,0-2.058,1.122,3.244,3.244,0,0,0,.129,4.373,4.287,4.287,0,0,0,2.779.757,6.652,6.652,0,0,0,2.858-.6,13.054,13.054,0,0,0,2.379-1.458Z" transform="translate(-30.278 -24.92)"/><path class="c" d="M175.4,131.2l-7.109,17.555h-2.972L158.26,131.2h3.208l5.437,13.975L172.3,131.2Z" transform="translate(-45.652 -25.092)"/><path class="c" d="M229.54,140.087H216.6a7.409,7.409,0,0,0,.493,2.858,5.244,5.244,0,0,0,3.272,3.108,7.809,7.809,0,0,0,2.479.379,9.753,9.753,0,0,0,3.608-.714,8.925,8.925,0,0,0,2.586-1.429h.157v3.222a24.412,24.412,0,0,1-3.051,1.05,12.268,12.268,0,0,1-3.272.429,9.417,9.417,0,0,1-6.823-2.372A8.878,8.878,0,0,1,213.6,139.9a9.72,9.72,0,0,1,2.351-6.845,8.045,8.045,0,0,1,6.188-2.529,7.064,7.064,0,0,1,5.48,2.079,8.32,8.32,0,0,1,1.922,5.895Zm-2.858-2.265a5.209,5.209,0,0,0-1.172-3.572A4.516,4.516,0,0,0,222,132.971a5.13,5.13,0,0,0-3.78,1.429,5.437,5.437,0,0,0-1.6,3.472Z" transform="translate(-61.452 -24.898)"/><path class="c" d="M273.258,146H270.3V121.54h2.958Z" transform="translate(-77.64 -22.334)"/><path class="c" d="M372.312,146.414H369l-2.294-6.523H356.572l-2.294,6.523H351.12L359.644,123H363.8Zm-6.573-9.2-4.1-11.489-4.123,11.489Z" transform="translate(-100.715 -22.751)"/><path class="c" d="M416.5,146H413.54V121.54H416.5Z" transform="translate(-118.536 -22.334)"/><path class="c" d="M456.944,146H454V121.54h2.958Z" transform="translate(-130.088 -22.334)"/><path class="c" d="M497.5,125.855H494.16V122.79H497.5Zm-.193,20.5h-2.958V128.8H497.3Z" transform="translate(-141.554 -22.691)"/><path class="c" d="M547.956,148.569H545.02V146.7c-.264.179-.622.429-1.065.714a7.855,7.855,0,0,1-1.293.765,8.915,8.915,0,0,1-1.7.6,9.1,9.1,0,0,1-2.251.25,5.616,5.616,0,0,1-4.023-1.579,5.28,5.28,0,0,1-1.651-4.008,5.551,5.551,0,0,1,.857-3.23,5.715,5.715,0,0,1,2.444-1.943,13.318,13.318,0,0,1,3.851-.957q2.251-.243,4.83-.379v-.45a3.529,3.529,0,0,0-.357-1.672,2.572,2.572,0,0,0-1.015-1.036,4.158,4.158,0,0,0-1.508-.486,11.91,11.91,0,0,0-4.437.179,19.921,19.921,0,0,0-2.951.893H534.6V131.35c.572-.157,1.429-.329,2.5-.514a18.37,18.37,0,0,1,3.222-.286,14.841,14.841,0,0,1,3.229.307,6.323,6.323,0,0,1,2.379,1.043,4.608,4.608,0,0,1,1.508,1.872,6.83,6.83,0,0,1,.522,2.858Zm-2.937-4.323v-4.887c-.907.05-1.965.129-3.187.236a16.61,16.61,0,0,0-2.9.457,4.687,4.687,0,0,0-2.058,1.122,3.251,3.251,0,0,0,.121,4.373,4.287,4.287,0,0,0,2.786.757,6.652,6.652,0,0,0,2.858-.6,13.291,13.291,0,0,0,2.379-1.458Z" transform="translate(-152.652 -24.906)"/><path class="c" d="M604.654,148.553H601.7v-10a17.456,17.456,0,0,0-.143-2.272,4.159,4.159,0,0,0-.522-1.658,2.379,2.379,0,0,0-1.129-.986,4.879,4.879,0,0,0-1.922-.322,6.1,6.1,0,0,0-2.529.6,13.216,13.216,0,0,0-2.529,1.522v13.111H590V131h2.958v1.943a12.191,12.191,0,0,1,2.858-1.793,7.553,7.553,0,0,1,3.037-.643,5.437,5.437,0,0,1,4.337,1.715,7.27,7.27,0,0,1,1.493,4.937Z" transform="translate(-168.917 -24.89)"/><path class="c" d="M659.036,147.489a18.578,18.578,0,0,1-2.808,1.1,9.832,9.832,0,0,1-2.822.393,10.467,10.467,0,0,1-3.487-.557,7.144,7.144,0,0,1-2.722-1.686,7.63,7.63,0,0,1-1.779-2.858,11.918,11.918,0,0,1-.629-4.037,9.382,9.382,0,0,1,2.372-6.766,8.3,8.3,0,0,1,6.245-2.451,10.445,10.445,0,0,1,2.965.429,15.212,15.212,0,0,1,2.665,1.036v3.287h-.157a11.261,11.261,0,0,0-2.794-1.629,7.588,7.588,0,0,0-2.8-.564,5,5,0,0,0-3.973,1.686,7.583,7.583,0,0,0-1.429,5,7.085,7.085,0,0,0,1.429,4.88,4.916,4.916,0,0,0,4,1.708,7.418,7.418,0,0,0,1.822-.236,8.139,8.139,0,0,0,1.665-.614,13.733,13.733,0,0,0,1.208-.714,7.519,7.519,0,0,0,.9-.636h.157Z" transform="translate(-184.559 -24.927)"/><path class="c" d="M712.31,140.087H699.371a7.552,7.552,0,0,0,.486,2.858,5.237,5.237,0,0,0,3.279,3.108,7.809,7.809,0,0,0,2.479.379,9.781,9.781,0,0,0,3.608-.714,8.925,8.925,0,0,0,2.586-1.429h.157v3.222a24.814,24.814,0,0,1-3.051,1.05,12.268,12.268,0,0,1-3.272.429,9.4,9.4,0,0,1-6.823-2.372,8.914,8.914,0,0,1-2.451-6.716,9.721,9.721,0,0,1,2.351-6.845,8.045,8.045,0,0,1,6.188-2.529,7.064,7.064,0,0,1,5.48,2.079,8.456,8.456,0,0,1,1.922,5.895Zm-2.858-2.265a5.208,5.208,0,0,0-1.165-3.572,4.516,4.516,0,0,0-3.515-1.279,5.13,5.13,0,0,0-3.78,1.429,5.437,5.437,0,0,0-1.6,3.472Z" transform="translate(-199.286 -24.898)"/></g></svg>